<svg width="144" height="52" viewBox="0 0 144 52" fill="none"
  xmlns="http://www.w3.org/2000/svg">
  <g clip-path="url(#clip0_1304_990)">
    <path d="M81.4588 12.3636H84.9418L87.8963 19.5682H88.0327L90.9872 12.3636H94.4702V24H91.7315V16.8523H91.6349L88.8395 23.9261H87.0895L84.294 16.8125H84.1974V24H81.4588V12.3636ZM100.298 24.1648C99.3816 24.1648 98.5938 23.9773 97.9347 23.6023C97.2794 23.2235 96.7737 22.697 96.4176 22.0227C96.0653 21.3447 95.8892 20.5587 95.8892 19.6648C95.8892 18.767 96.0653 17.9811 96.4176 17.3068C96.7737 16.6288 97.2794 16.1023 97.9347 15.7273C98.5938 15.3485 99.3816 15.1591 100.298 15.1591C101.215 15.1591 102.001 15.3485 102.656 15.7273C103.315 16.1023 103.821 16.6288 104.173 17.3068C104.529 17.9811 104.707 18.767 104.707 19.6648C104.707 20.5587 104.529 21.3447 104.173 22.0227C103.821 22.697 103.315 23.2235 102.656 23.6023C102.001 23.9773 101.215 24.1648 100.298 24.1648ZM100.315 22.0682C100.649 22.0682 100.931 21.9659 101.162 21.7614C101.393 21.5568 101.569 21.2727 101.69 20.9091C101.815 20.5455 101.878 20.125 101.878 19.6477C101.878 19.1629 101.815 18.7386 101.69 18.375C101.569 18.0114 101.393 17.7273 101.162 17.5227C100.931 17.3182 100.649 17.2159 100.315 17.2159C99.9706 17.2159 99.679 17.3182 99.4403 17.5227C99.2055 17.7273 99.0256 18.0114 98.9006 18.375C98.7794 18.7386 98.7188 19.1629 98.7188 19.6477C98.7188 20.125 98.7794 20.5455 98.9006 20.9091C99.0256 21.2727 99.2055 21.5568 99.4403 21.7614C99.679 21.9659 99.9706 22.0682 100.315 22.0682ZM110.199 27.4545C109.369 27.4545 108.659 27.339 108.068 27.108C107.477 26.8769 107.013 26.5606 106.676 26.1591C106.339 25.7576 106.136 25.303 106.068 24.7955L108.699 24.6477C108.748 24.8258 108.839 24.9811 108.972 25.1136C109.108 25.2462 109.284 25.3485 109.5 25.4205C109.72 25.4924 109.977 25.5284 110.273 25.5284C110.739 25.5284 111.123 25.4148 111.426 25.1875C111.733 24.964 111.886 24.572 111.886 24.0114V22.4773H111.79C111.68 22.7462 111.513 22.9867 111.29 23.1989C111.066 23.411 110.788 23.5777 110.455 23.6989C110.125 23.8201 109.746 23.8807 109.318 23.8807C108.682 23.8807 108.098 23.733 107.568 23.4375C107.042 23.1383 106.619 22.6761 106.301 22.0511C105.987 21.4223 105.83 20.6136 105.83 19.625C105.83 18.6061 105.992 17.767 106.318 17.108C106.644 16.4451 107.07 15.9545 107.597 15.6364C108.127 15.3182 108.697 15.1591 109.307 15.1591C109.765 15.1591 110.157 15.2386 110.483 15.3977C110.813 15.553 111.083 15.7538 111.295 16C111.508 16.2462 111.669 16.5019 111.778 16.767H111.858V15.2727H114.625V24.0341C114.625 24.7727 114.439 25.3958 114.068 25.9034C113.697 26.411 113.178 26.7955 112.511 27.0568C111.845 27.322 111.074 27.4545 110.199 27.4545ZM110.284 21.858C110.621 21.858 110.909 21.7689 111.148 21.5909C111.386 21.4129 111.57 21.1572 111.699 20.8239C111.828 20.4905 111.892 20.0909 111.892 19.625C111.892 19.1515 111.828 18.7443 111.699 18.4034C111.574 18.0587 111.39 17.7936 111.148 17.608C110.909 17.4223 110.621 17.3295 110.284 17.3295C109.939 17.3295 109.648 17.4242 109.409 17.6136C109.17 17.803 108.989 18.0701 108.864 18.4148C108.742 18.7557 108.682 19.1591 108.682 19.625C108.682 20.0909 108.744 20.4905 108.869 20.8239C108.994 21.1572 109.174 21.4129 109.409 21.5909C109.648 21.7689 109.939 21.858 110.284 21.858ZM120.47 24.1648C119.554 24.1648 118.766 23.9773 118.107 23.6023C117.451 23.2235 116.946 22.697 116.589 22.0227C116.237 21.3447 116.061 20.5587 116.061 19.6648C116.061 18.767 116.237 17.9811 116.589 17.3068C116.946 16.6288 117.451 16.1023 118.107 15.7273C118.766 15.3485 119.554 15.1591 120.47 15.1591C121.387 15.1591 122.173 15.3485 122.828 15.7273C123.487 16.1023 123.993 16.6288 124.345 17.3068C124.701 17.9811 124.879 18.767 124.879 19.6648C124.879 20.5587 124.701 21.3447 124.345 22.0227C123.993 22.697 123.487 23.2235 122.828 23.6023C122.173 23.9773 121.387 24.1648 120.47 24.1648ZM120.487 22.0682C120.821 22.0682 121.103 21.9659 121.334 21.7614C121.565 21.5568 121.741 21.2727 121.862 20.9091C121.987 20.5455 122.05 20.125 122.05 19.6477C122.05 19.1629 121.987 18.7386 121.862 18.375C121.741 18.0114 121.565 17.7273 121.334 17.5227C121.103 17.3182 120.821 17.2159 120.487 17.2159C120.143 17.2159 119.851 17.3182 119.612 17.5227C119.377 17.7273 119.197 18.0114 119.072 18.375C118.951 18.7386 118.891 19.1629 118.891 19.6477C118.891 20.125 118.951 20.5455 119.072 20.9091C119.197 21.2727 119.377 21.5568 119.612 21.7614C119.851 21.9659 120.143 22.0682 120.487 22.0682ZM69.1016 33.9375L66.5504 34.0057C66.5239 33.8239 66.4519 33.6629 66.3345 33.5227C66.2171 33.3788 66.0637 33.267 65.8743 33.1875C65.6887 33.1042 65.4728 33.0625 65.2266 33.0625C64.9046 33.0625 64.63 33.1269 64.4027 33.2557C64.1792 33.3845 64.0694 33.5587 64.0732 33.7784C64.0694 33.9489 64.1375 34.0966 64.2777 34.2216C64.4216 34.3466 64.6773 34.447 65.0447 34.5227L66.7266 34.8409C67.5978 35.0076 68.2455 35.2841 68.6697 35.6705C69.0978 36.0568 69.3137 36.5682 69.3175 37.2045C69.3137 37.803 69.1357 38.3239 68.7834 38.767C68.4349 39.2102 67.9576 39.5549 67.3516 39.8011C66.7455 40.0436 66.0523 40.1648 65.272 40.1648C64.0258 40.1648 63.0429 39.9091 62.3232 39.3977C61.6072 38.8826 61.1982 38.1932 61.0959 37.3295L63.8402 37.2614C63.9008 37.5795 64.058 37.822 64.3118 37.9886C64.5656 38.1553 64.8894 38.2386 65.2834 38.2386C65.6394 38.2386 65.9292 38.1723 66.1527 38.0398C66.3762 37.9072 66.4898 37.7311 66.4936 37.5114C66.4898 37.3144 66.4027 37.1572 66.2322 37.0398C66.0618 36.9186 65.7947 36.8239 65.4311 36.7557L63.9084 36.4659C63.0334 36.3068 62.3819 36.0133 61.9538 35.5852C61.5258 35.1534 61.3137 34.6042 61.3175 33.9375C61.3137 33.3542 61.469 32.8561 61.7834 32.4432C62.0978 32.0265 62.5447 31.7083 63.1243 31.4886C63.7038 31.2689 64.3875 31.1591 65.1754 31.1591C66.3572 31.1591 67.2891 31.4072 67.9709 31.9034C68.6527 32.3958 69.0296 33.0739 69.1016 33.9375ZM74.7649 40.1648C73.852 40.1648 73.0642 39.9848 72.4013 39.625C71.7422 39.2614 71.2346 38.7443 70.8786 38.0739C70.5263 37.3996 70.3501 36.5985 70.3501 35.6705C70.3501 34.7689 70.5282 33.9811 70.8842 33.3068C71.2403 32.6288 71.7422 32.1023 72.3899 31.7273C73.0376 31.3485 73.8009 31.1591 74.6797 31.1591C75.3009 31.1591 75.8691 31.2557 76.3842 31.4489C76.8994 31.642 77.3445 31.928 77.7195 32.3068C78.0945 32.6856 78.3861 33.1534 78.5945 33.7102C78.8028 34.2633 78.907 34.8977 78.907 35.6136V36.3068H71.3217V34.6932H76.3217C76.3179 34.3977 76.2479 34.1345 76.1115 33.9034C75.9751 33.6723 75.7876 33.4924 75.549 33.3636C75.3142 33.2311 75.0433 33.1648 74.7365 33.1648C74.4259 33.1648 74.1475 33.2348 73.9013 33.375C73.6551 33.5114 73.46 33.6989 73.3161 33.9375C73.1721 34.1723 73.0964 34.4394 73.0888 34.7386V36.3807C73.0888 36.7367 73.1589 37.0492 73.299 37.3182C73.4392 37.5833 73.638 37.7898 73.8956 37.9375C74.1532 38.0852 74.46 38.1591 74.8161 38.1591C75.0623 38.1591 75.2857 38.125 75.4865 38.0568C75.6873 37.9886 75.8596 37.8883 76.0036 37.7557C76.1475 37.6231 76.2554 37.4602 76.3274 37.267L78.8786 37.3409C78.7725 37.9129 78.5395 38.411 78.1797 38.8352C77.8236 39.2557 77.3558 39.5833 76.7763 39.8182C76.1967 40.0492 75.5263 40.1648 74.7649 40.1648ZM87.9453 33.9375L85.3942 34.0057C85.3677 33.8239 85.2957 33.6629 85.1783 33.5227C85.0608 33.3788 84.9074 33.267 84.718 33.1875C84.5324 33.1042 84.3165 33.0625 84.0703 33.0625C83.7483 33.0625 83.4737 33.1269 83.2464 33.2557C83.023 33.3845 82.9131 33.5587 82.9169 33.7784C82.9131 33.9489 82.9813 34.0966 83.1214 34.2216C83.2654 34.3466 83.5211 34.447 83.8885 34.5227L85.5703 34.8409C86.4415 35.0076 87.0893 35.2841 87.5135 35.6705C87.9415 36.0568 88.1574 36.5682 88.1612 37.2045C88.1574 37.803 87.9794 38.3239 87.6271 38.767C87.2786 39.2102 86.8014 39.5549 86.1953 39.8011C85.5893 40.0436 84.8961 40.1648 84.1158 40.1648C82.8696 40.1648 81.8866 39.9091 81.1669 39.3977C80.451 38.8826 80.0419 38.1932 79.9396 37.3295L82.6839 37.2614C82.7446 37.5795 82.9018 37.822 83.1555 37.9886C83.4093 38.1553 83.7332 38.2386 84.1271 38.2386C84.4832 38.2386 84.773 38.1723 84.9964 38.0398C85.2199 37.9072 85.3336 37.7311 85.3374 37.5114C85.3336 37.3144 85.2464 37.1572 85.076 37.0398C84.9055 36.9186 84.6385 36.8239 84.2749 36.7557L82.7521 36.4659C81.8771 36.3068 81.2256 36.0133 80.7976 35.5852C80.3696 35.1534 80.1574 34.6042 80.1612 33.9375C80.1574 33.3542 80.3127 32.8561 80.6271 32.4432C80.9415 32.0265 81.3885 31.7083 81.968 31.4886C82.5476 31.2689 83.2313 31.1591 84.0192 31.1591C85.201 31.1591 86.1328 31.4072 86.8146 31.9034C87.4964 32.3958 87.8733 33.0739 87.9453 33.9375ZM89.5291 40V31.2727H92.3075V40H89.5291ZM90.9212 30.2557C90.531 30.2557 90.1958 30.1269 89.9155 29.8693C89.6352 29.608 89.495 29.2936 89.495 28.9261C89.495 28.5625 89.6352 28.2519 89.9155 27.9943C90.1958 27.733 90.531 27.6023 90.9212 27.6023C91.3151 27.6023 91.6503 27.733 91.9268 27.9943C92.2071 28.2519 92.3473 28.5625 92.3473 28.9261C92.3473 29.2936 92.2071 29.608 91.9268 29.8693C91.6503 30.1269 91.3151 30.2557 90.9212 30.2557ZM94.0987 40V38.4148L98.1442 33.4886V33.4318H94.2408V31.2727H101.457V33.0114L97.7067 37.7841V37.8409H101.593V40H94.0987ZM107.218 40.1648C106.305 40.1648 105.517 39.9848 104.854 39.625C104.195 39.2614 103.688 38.7443 103.332 38.0739C102.979 37.3996 102.803 36.5985 102.803 35.6705C102.803 34.7689 102.981 33.9811 103.337 33.3068C103.693 32.6288 104.195 32.1023 104.843 31.7273C105.491 31.3485 106.254 31.1591 107.133 31.1591C107.754 31.1591 108.322 31.2557 108.837 31.4489C109.353 31.642 109.798 31.928 110.173 32.3068C110.548 32.6856 110.839 33.1534 111.048 33.7102C111.256 34.2633 111.36 34.8977 111.36 35.6136V36.3068H103.775V34.6932H108.775C108.771 34.3977 108.701 34.1345 108.565 33.9034C108.428 33.6723 108.241 33.4924 108.002 33.3636C107.767 33.2311 107.496 33.1648 107.19 33.1648C106.879 33.1648 106.601 33.2348 106.354 33.375C106.108 33.5114 105.913 33.6989 105.769 33.9375C105.625 34.1723 105.549 34.4394 105.542 34.7386V36.3807C105.542 36.7367 105.612 37.0492 105.752 37.3182C105.892 37.5833 106.091 37.7898 106.349 37.9375C106.606 38.0852 106.913 38.1591 107.269 38.1591C107.515 38.1591 107.739 38.125 107.94 38.0568C108.14 37.9886 108.313 37.8883 108.457 37.7557C108.601 37.6231 108.709 37.4602 108.781 37.267L111.332 37.3409C111.226 37.9129 110.993 38.411 110.633 38.8352C110.277 39.2557 109.809 39.5833 109.229 39.8182C108.65 40.0492 107.979 40.1648 107.218 40.1648ZM115.239 40.1477C114.683 40.1477 114.188 40.0549 113.756 39.8693C113.328 39.6799 112.989 39.3958 112.739 39.017C112.493 38.6345 112.37 38.1553 112.37 37.5795C112.37 37.0947 112.455 36.6856 112.626 36.3523C112.796 36.0189 113.031 35.7481 113.33 35.5398C113.629 35.3314 113.974 35.1742 114.364 35.0682C114.754 34.9583 115.171 34.8845 115.614 34.8466C116.111 34.8011 116.51 34.7538 116.813 34.7045C117.116 34.6515 117.336 34.5777 117.472 34.483C117.612 34.3845 117.683 34.2462 117.683 34.0682V34.0398C117.683 33.7481 117.582 33.5227 117.381 33.3636C117.181 33.2045 116.91 33.125 116.569 33.125C116.201 33.125 115.906 33.2045 115.683 33.3636C115.459 33.5227 115.317 33.7424 115.256 34.0227L112.694 33.9318C112.77 33.4015 112.965 32.928 113.279 32.5114C113.597 32.0909 114.033 31.7614 114.586 31.5227C115.143 31.2803 115.811 31.1591 116.592 31.1591C117.148 31.1591 117.662 31.2254 118.131 31.358C118.601 31.4867 119.01 31.6761 119.359 31.9261C119.707 32.1723 119.976 32.4754 120.165 32.8352C120.359 33.1951 120.455 33.6061 120.455 34.0682V40H117.842V38.7841H117.773C117.618 39.0795 117.419 39.3295 117.177 39.5341C116.938 39.7386 116.656 39.892 116.33 39.9943C116.008 40.0966 115.645 40.1477 115.239 40.1477ZM116.097 38.3295C116.397 38.3295 116.665 38.2689 116.904 38.1477C117.147 38.0265 117.34 37.8598 117.484 37.6477C117.628 37.4318 117.7 37.1818 117.7 36.8977V36.0682C117.62 36.1098 117.523 36.1477 117.41 36.1818C117.3 36.2159 117.179 36.2481 117.046 36.2784C116.914 36.3087 116.777 36.3352 116.637 36.358C116.497 36.3807 116.362 36.4015 116.234 36.4205C115.972 36.4621 115.749 36.5265 115.563 36.6136C115.381 36.7008 115.241 36.8144 115.143 36.9545C115.048 37.0909 115.001 37.2538 115.001 37.4432C115.001 37.7311 115.103 37.9508 115.308 38.1023C115.516 38.2538 115.779 38.3295 116.097 38.3295ZM122.177 40V38.4148L126.222 33.4886V33.4318H122.319V31.2727H129.535V33.0114L125.785 37.7841V37.8409H129.671V40H122.177ZM133.927 40.1477C133.37 40.1477 132.876 40.0549 132.444 39.8693C132.016 39.6799 131.677 39.3958 131.427 39.017C131.181 38.6345 131.058 38.1553 131.058 37.5795C131.058 37.0947 131.143 36.6856 131.313 36.3523C131.484 36.0189 131.719 35.7481 132.018 35.5398C132.317 35.3314 132.662 35.1742 133.052 35.0682C133.442 34.9583 133.859 34.8845 134.302 34.8466C134.798 34.8011 135.198 34.7538 135.501 34.7045C135.804 34.6515 136.023 34.5777 136.16 34.483C136.3 34.3845 136.37 34.2462 136.37 34.0682V34.0398C136.37 33.7481 136.27 33.5227 136.069 33.3636C135.868 33.2045 135.597 33.125 135.256 33.125C134.889 33.125 134.594 33.2045 134.37 33.3636C134.147 33.5227 134.004 33.7424 133.944 34.0227L131.381 33.9318C131.457 33.4015 131.652 32.928 131.967 32.5114C132.285 32.0909 132.72 31.7614 133.273 31.5227C133.83 31.2803 134.499 31.1591 135.279 31.1591C135.836 31.1591 136.349 31.2254 136.819 31.358C137.289 31.4867 137.698 31.6761 138.046 31.9261C138.395 32.1723 138.664 32.4754 138.853 32.8352C139.046 33.1951 139.143 33.6061 139.143 34.0682V40H136.529V38.7841H136.461C136.306 39.0795 136.107 39.3295 135.864 39.5341C135.626 39.7386 135.344 39.892 135.018 39.9943C134.696 40.0966 134.332 40.1477 133.927 40.1477ZM134.785 38.3295C135.084 38.3295 135.353 38.2689 135.592 38.1477C135.834 38.0265 136.027 37.8598 136.171 37.6477C136.315 37.4318 136.387 37.1818 136.387 36.8977V36.0682C136.308 36.1098 136.211 36.1477 136.097 36.1818C135.987 36.2159 135.866 36.2481 135.734 36.2784C135.601 36.3087 135.465 36.3352 135.325 36.358C135.184 36.3807 135.05 36.4015 134.921 36.4205C134.66 36.4621 134.436 36.5265 134.251 36.6136C134.069 36.7008 133.929 36.8144 133.83 36.9545C133.736 37.0909 133.688 37.2538 133.688 37.4432C133.688 37.7311 133.79 37.9508 133.995 38.1023C134.203 38.2538 134.467 38.3295 134.785 38.3295ZM136.506 28.1818H138.336C138.332 28.8939 138.063 29.4659 137.529 29.8977C136.999 30.3295 136.279 30.5455 135.37 30.5455C134.461 30.5455 133.739 30.3295 133.205 29.8977C132.675 29.4659 132.412 28.8939 132.415 28.1818H134.228C134.224 28.4318 134.309 28.6591 134.484 28.8636C134.658 29.0682 134.953 29.1705 135.37 29.1705C135.775 29.1705 136.065 29.0701 136.239 28.8693C136.414 28.6686 136.503 28.4394 136.506 28.1818ZM144.109 28.3636L143.847 36.4375H141.512L141.251 28.3636H144.109ZM142.677 40.1648C142.272 40.1648 141.923 40.0208 141.631 39.733C141.344 39.4451 141.2 39.0966 141.2 38.6875C141.2 38.286 141.344 37.9432 141.631 37.6591C141.923 37.3712 142.272 37.2273 142.677 37.2273C143.067 37.2273 143.41 37.3712 143.705 37.6591C144.004 37.9432 144.154 38.286 144.154 38.6875C144.154 38.9602 144.084 39.2083 143.944 39.4318C143.808 39.6553 143.628 39.8333 143.404 39.9659C143.184 40.0985 142.942 40.1648 142.677 40.1648Z" fill="#e5e7eb"/>
    <path fill-rule="evenodd" clip-rule="evenodd" d="M38.4 40.4811V41.6509H43.2V40.4811V39.3113H38.4V40.4811ZM43.2 32.8774V33.4623H38.4V32.8774V31.7075V30.5377L39.6 29.3679L40.8 28.1981L42 29.3679L43.2 30.5377V31.7075V32.8774Z" fill="#e5e7eb"/>
    <path fill-rule="evenodd" clip-rule="evenodd" d="M21.6 40.4811V41.6509H16.8V40.4811V39.3113H21.6V40.4811ZM21.6 32.8774V33.4623H16.8V32.8774V31.7075H21.6V32.8774ZM18 29.3679H20.4L19.2 28.1981L18 29.3679Z" fill="#e5e7eb"/>
    <path d="M3 29.3679H6H13.2L19.2 24.6887L24 29.3679H36L40.8 24.6887L46.8 29.3679H54H57L39.6 20.0094H20.4L11.7 24.6887L3 29.3679Z" fill="#e5e7eb"/>
    <path d="M3 29.3679L2.64474 28.7074C2.34208 28.8702 2.18878 29.2178 2.27271 29.5511C2.35665 29.8844 2.65634 30.1179 3 30.1179V29.3679ZM6 47.5H5.25C5.25 47.9142 5.58579 48.25 6 48.25V47.5ZM10.35 34.0472C10.35 33.633 10.0142 33.2972 9.6 33.2972C9.18579 33.2972 8.85 33.633 8.85 34.0472H10.35ZM8.85 38.7264C8.85 39.1406 9.18579 39.4764 9.6 39.4764C10.0142 39.4764 10.35 39.1406 10.35 38.7264H8.85ZM13.95 34.0472C13.95 33.633 13.6142 33.2972 13.2 33.2972C12.7858 33.2972 12.45 33.633 12.45 34.0472H13.95ZM12.45 38.7264C12.45 39.1406 12.7858 39.4764 13.2 39.4764C13.6142 39.4764 13.95 39.1406 13.95 38.7264H12.45ZM24.75 34.0472C24.75 33.633 24.4142 33.2972 24 33.2972C23.5858 33.2972 23.25 33.633 23.25 34.0472H24.75ZM23.25 38.7264C23.25 39.1406 23.5858 39.4764 24 39.4764C24.4142 39.4764 24.75 39.1406 24.75 38.7264H23.25ZM28.35 34.0472C28.35 33.633 28.0142 33.2972 27.6 33.2972C27.1858 33.2972 26.85 33.633 26.85 34.0472H28.35ZM26.85 38.7264C26.85 39.1406 27.1858 39.4764 27.6 39.4764C28.0142 39.4764 28.35 39.1406 28.35 38.7264H26.85ZM30.75 34.0472C30.75 33.633 30.4142 33.2972 30 33.2972C29.5858 33.2972 29.25 33.633 29.25 34.0472H30.75ZM29.25 38.7264C29.25 39.1406 29.5858 39.4764 30 39.4764C30.4142 39.4764 30.75 39.1406 30.75 38.7264H29.25ZM30.75 43.4057C30.75 42.9914 30.4142 42.6557 30 42.6557C29.5858 42.6557 29.25 42.9914 29.25 43.4057H30.75ZM29.25 44.5755C29.25 44.9897 29.5858 45.3255 30 45.3255C30.4142 45.3255 30.75 44.9897 30.75 44.5755H29.25ZM28.35 43.4057C28.35 42.9914 28.0142 42.6557 27.6 42.6557C27.1858 42.6557 26.85 42.9914 26.85 43.4057H28.35ZM26.85 44.5755C26.85 44.9897 27.1858 45.3255 27.6 45.3255C28.0142 45.3255 28.35 44.9897 28.35 44.5755H26.85ZM13.95 43.4057C13.95 42.9914 13.6142 42.6557 13.2 42.6557C12.7858 42.6557 12.45 42.9914 12.45 43.4057H13.95ZM12.45 44.5755C12.45 44.9897 12.7858 45.3255 13.2 45.3255C13.6142 45.3255 13.95 44.9897 13.95 44.5755H12.45ZM10.35 43.4057C10.35 42.9914 10.0142 42.6557 9.6 42.6557C9.18579 42.6557 8.85 42.9914 8.85 43.4057H10.35ZM8.85 44.5755C8.85 44.9897 9.18579 45.3255 9.6 45.3255C10.0142 45.3255 10.35 44.9897 10.35 44.5755H8.85ZM21.15 16.5C21.15 16.0858 20.8142 15.75 20.4 15.75C19.9858 15.75 19.65 16.0858 19.65 16.5H21.15ZM24 29.3679L23.4765 29.905C23.6165 30.0415 23.8044 30.1179 24 30.1179V29.3679ZM19.2 24.6887L19.7235 24.1516C19.455 23.8899 19.0345 23.8667 18.7388 24.0973L19.2 24.6887ZM13.2 29.3679V30.1179C13.3671 30.1179 13.5294 30.0621 13.6612 29.9593L13.2 29.3679ZM16.8 30.5377L16.2765 30.0007C16.1317 30.1419 16.05 30.3355 16.05 30.5377H16.8ZM21.6 30.5377H22.35C22.35 30.3355 22.2683 30.1419 22.1235 30.0007L21.6 30.5377ZM19.2 28.1981L19.7235 27.6611C19.4323 27.3771 18.9677 27.3771 18.6765 27.6611L19.2 28.1981ZM57 29.3679V30.1179C57.3437 30.1179 57.6434 29.8844 57.7273 29.5511C57.8112 29.2178 57.6579 28.8702 57.3553 28.7074L57 29.3679ZM54 47.5V48.25C54.4142 48.25 54.75 47.9142 54.75 47.5H54ZM51.15 34.0472C51.15 33.633 50.8142 33.2972 50.4 33.2972C49.9858 33.2972 49.65 33.633 49.65 34.0472H51.15ZM49.65 38.7264C49.65 39.1406 49.9858 39.4764 50.4 39.4764C50.8142 39.4764 51.15 39.1406 51.15 38.7264H49.65ZM47.55 34.0472C47.55 33.633 47.2142 33.2972 46.8 33.2972C46.3858 33.2972 46.05 33.633 46.05 34.0472H47.55ZM46.05 38.7264C46.05 39.1406 46.3858 39.4764 46.8 39.4764C47.2142 39.4764 47.55 39.1406 47.55 38.7264H46.05ZM36.75 34.0472C36.75 33.633 36.4142 33.2972 36 33.2972C35.5858 33.2972 35.25 33.633 35.25 34.0472H36.75ZM35.25 38.7264C35.25 39.1406 35.5858 39.4764 36 39.4764C36.4142 39.4764 36.75 39.1406 36.75 38.7264H35.25ZM33.15 34.0472C33.15 33.633 32.8142 33.2972 32.4 33.2972C31.9858 33.2972 31.65 33.633 31.65 34.0472H33.15ZM31.65 38.7264C31.65 39.1406 31.9858 39.4764 32.4 39.4764C32.8142 39.4764 33.15 39.1406 33.15 38.7264H31.65ZM33.15 43.4057C33.15 42.9914 32.8142 42.6557 32.4 42.6557C31.9858 42.6557 31.65 42.9914 31.65 43.4057H33.15ZM31.65 44.5755C31.65 44.9897 31.9858 45.3255 32.4 45.3255C32.8142 45.3255 33.15 44.9897 33.15 44.5755H31.65ZM47.55 43.4057C47.55 42.9914 47.2142 42.6557 46.8 42.6557C46.3858 42.6557 46.05 42.9914 46.05 43.4057H47.55ZM46.05 44.5755C46.05 44.9897 46.3858 45.3255 46.8 45.3255C47.2142 45.3255 47.55 44.9897 47.55 44.5755H46.05ZM51.15 43.4057C51.15 42.9914 50.8142 42.6557 50.4 42.6557C49.9858 42.6557 49.65 42.9914 49.65 43.4057H51.15ZM49.65 44.5755C49.65 44.9897 49.9858 45.3255 50.4 45.3255C50.8142 45.3255 51.15 44.9897 51.15 44.5755H49.65ZM40.35 16.5C40.35 16.0858 40.0142 15.75 39.6 15.75C39.1858 15.75 38.85 16.0858 38.85 16.5H40.35ZM36 29.3679V30.1179C36.1956 30.1179 36.3835 30.0415 36.5235 29.905L36 29.3679ZM40.8 24.6887L41.2612 24.0973C40.9655 23.8667 40.545 23.8899 40.2765 24.1516L40.8 24.6887ZM46.8 29.3679L46.3388 29.9593C46.4706 30.0621 46.6329 30.1179 46.8 30.1179V29.3679ZM43.2 30.5377H43.95C43.95 30.3355 43.8683 30.1419 43.7235 30.0007L43.2 30.5377ZM38.4 30.5377L37.8765 30.0007C37.7317 30.1419 37.65 30.3355 37.65 30.5377H38.4ZM40.8 28.1981L41.3235 27.6611C41.0323 27.3771 40.5677 27.3771 40.2765 27.6611L40.8 28.1981ZM3 30.1179H6V28.6179H3V30.1179ZM5.25 29.3679V47.5H6.75V29.3679H5.25ZM6 48.25H16.8V46.75H6V48.25ZM16.8 48.25H21.6V46.75H16.8V48.25ZM20.85 41.6509V47.5H22.35V41.6509H20.85ZM17.55 47.5V41.6509H16.05V47.5H17.55ZM21.6 40.9009H16.8V42.4009H21.6V40.9009ZM16.8 40.0613H21.6V38.5613H16.8V40.0613ZM17.55 39.3113V33.4623H16.05V39.3113H17.55ZM20.85 33.4623V39.3113H22.35V33.4623H20.85ZM8.85 34.0472V38.7264H10.35V34.0472H8.85ZM12.45 34.0472V38.7264H13.95V34.0472H12.45ZM23.25 34.0472V38.7264H24.75V34.0472H23.25ZM26.85 34.0472V38.7264H28.35V34.0472H26.85ZM29.25 34.0472V38.7264H30.75V34.0472H29.25ZM29.25 43.4057V44.5755H30.75V43.4057H29.25ZM26.85 43.4057V44.5755H28.35V43.4057H26.85ZM12.45 43.4057V44.5755H13.95V43.4057H12.45ZM8.85 43.4057V44.5755H10.35V43.4057H8.85ZM21.15 20.0094V16.5H19.65V20.0094H21.15ZM24.5235 28.8309L19.7235 24.1516L18.6765 25.2257L23.4765 29.905L24.5235 28.8309ZM18.7388 24.0973L12.7388 28.7765L13.6612 29.9593L19.6612 25.2801L18.7388 24.0973ZM13.2 28.6179H6V30.1179H13.2V28.6179ZM17.55 41.6509V40.4811H16.05V41.6509H17.55ZM17.55 40.4811V39.3113H16.05V40.4811H17.55ZM20.85 39.3113V40.4811H22.35V39.3113H20.85ZM20.85 40.4811V41.6509H22.35V40.4811H20.85ZM21.6 39.7311H16.8V41.2311H21.6V39.7311ZM16.8 31.2877H21.6V29.7877H16.8V31.2877ZM18.6765 28.7352L19.8765 29.905L20.9235 28.8309L19.7235 27.6611L18.6765 28.7352ZM19.8765 29.905L21.0765 31.0748L22.1235 30.0007L20.9235 28.8309L19.8765 29.905ZM17.3235 31.0748L18.5235 29.905L17.4765 28.8309L16.2765 30.0007L17.3235 31.0748ZM18.5235 29.905L19.7235 28.7352L18.6765 27.6611L17.4765 28.8309L18.5235 29.905ZM20.4 28.6179H18V30.1179H20.4V28.6179ZM17.55 31.7075V30.5377H16.05V31.7075H17.55ZM20.85 30.5377V31.7075H22.35V30.5377H20.85ZM16.8 32.4575H21.6V30.9575H16.8V32.4575ZM20.85 31.7075V32.8774H22.35V31.7075H20.85ZM20.85 32.8774V33.4623H22.35V32.8774H20.85ZM17.55 33.4623V32.8774H16.05V33.4623H17.55ZM17.55 32.8774V31.7075H16.05V32.8774H17.55ZM21.6 32.1274H16.8V33.6274H21.6V32.1274ZM57 28.6179H54V30.1179H57V28.6179ZM53.25 29.3679V47.5H54.75V29.3679H53.25ZM54 46.75H43.2V48.25H54V46.75ZM43.2 46.75H38.4V48.25H43.2V46.75ZM37.65 41.6509V47.5H39.15V41.6509H37.65ZM43.95 47.5V41.6509H42.45V47.5H43.95ZM38.4 42.4009H43.2V40.9009H38.4V42.4009ZM43.2 38.5613H38.4V40.0613H43.2V38.5613ZM43.95 39.3113V33.4623H42.45V39.3113H43.95ZM37.65 33.4623V39.3113H39.15V33.4623H37.65ZM49.65 34.0472V38.7264H51.15V34.0472H49.65ZM46.05 34.0472V38.7264H47.55V34.0472H46.05ZM35.25 34.0472V38.7264H36.75V34.0472H35.25ZM31.65 34.0472V38.7264H33.15V34.0472H31.65ZM31.65 43.4057V44.5755H33.15V43.4057H31.65ZM46.05 43.4057V44.5755H47.55V43.4057H46.05ZM49.65 43.4057V44.5755H51.15V43.4057H49.65ZM57.3553 28.7074L39.9553 19.3489L39.2447 20.67L56.6447 30.0284L57.3553 28.7074ZM40.35 20.0094V16.5H38.85V20.0094H40.35ZM36.5235 29.905L41.3235 25.2257L40.2765 24.1516L35.4765 28.8309L36.5235 29.905ZM40.3388 25.2801L46.3388 29.9593L47.2612 28.7765L41.2612 24.0973L40.3388 25.2801ZM46.8 30.1179H54V28.6179H46.8V30.1179ZM43.95 41.6509V40.4811H42.45V41.6509H43.95ZM43.95 40.4811V39.3113H42.45V40.4811H43.95ZM37.65 39.3113V40.4811H39.15V39.3113H37.65ZM37.65 40.4811V41.6509H39.15V40.4811H37.65ZM38.4 41.2311H43.2V39.7311H38.4V41.2311ZM43.2 29.7877H38.4V31.2877H43.2V29.7877ZM40.2765 27.6611L39.0765 28.8309L40.1235 29.905L41.3235 28.7352L40.2765 27.6611ZM39.0765 28.8309L37.8765 30.0007L38.9235 31.0748L40.1235 29.905L39.0765 28.8309ZM43.7235 30.0007L42.5235 28.8309L41.4765 29.905L42.6765 31.0748L43.7235 30.0007ZM42.5235 28.8309L41.3235 27.6611L40.2765 28.7352L41.4765 29.905L42.5235 28.8309ZM39.6 30.1179H42V28.6179H39.6V30.1179ZM43.95 31.7075V30.5377H42.45V31.7075H43.95ZM37.65 30.5377V31.7075H39.15V30.5377H37.65ZM43.2 30.9575H38.4V32.4575H43.2V30.9575ZM37.65 31.7075V32.8774H39.15V31.7075H37.65ZM37.65 32.8774V33.4623H39.15V32.8774H37.65ZM43.95 33.4623V32.8774H42.45V33.4623H43.95ZM43.95 32.8774V31.7075H42.45V32.8774H43.95ZM38.4 33.6274H43.2V32.1274H38.4V33.6274ZM21.6 48.25H38.4V46.75H21.6V48.25ZM20.4 20.7594H39.6V19.2594H20.4V20.7594ZM36 28.6179H24V30.1179H36V28.6179ZM16.8 34.2123H21.6V32.7123H16.8V34.2123ZM43.2 32.7123H38.4V34.2123H43.2V32.7123ZM3.35526 30.0284L12.0553 25.3492L11.3447 24.0282L2.64474 28.7074L3.35526 30.0284ZM12.0553 25.3492L20.7553 20.67L20.0447 19.3489L11.3447 24.0282L12.0553 25.3492Z" fill="#e5e7eb"/>
    <path d="M12.6151 5.88251C5.64796 9.13133 2.69615 17.5469 5.88251 24.3801C9.06887 31.2133 15.4166 32.0177 18.5904 32.4199C23.2934 32.8992 26.2592 35.1425 27.0762 36.8946C26.2592 35.1425 26.4472 31.4286 29.103 27.5178C30.835 24.8279 34.299 19.4482 31.1127 12.6151C27.9263 5.78191 19.5822 2.63369 12.6151 5.88251Z" fill="#2D3142" stroke="#e5e7eb" stroke-linejoin="round"/>
    <circle cx="18.4976" cy="18.4976" r="9.27947" transform="rotate(-25 18.4976 18.4976)" fill="#65C487"/>
  </g>
  <defs>
    <clipPath id="clip0_1304_990">
      <rect width="144" height="52" fill="white"/>
    </clipPath>
  </defs>
</svg>
