<svg width="64" height="64" viewBox="0 0 64 64" fill="none"
  xmlns="http://www.w3.org/2000/svg">
  <path fill-rule="evenodd" clip-rule="evenodd" d="M40.4 44.4811V45.6509H45.2V44.4811V43.3113H40.4V44.4811ZM45.2 36.8774V37.4623H40.4V36.8774V35.7075V34.5377L41.6 33.3679L42.8 32.1981L44 33.3679L45.2 34.5377V35.7075V36.8774Z" fill="#374151"/>
  <path fill-rule="evenodd" clip-rule="evenodd" d="M23.6 44.4811V45.6509H18.8V44.4811V43.3113H23.6V44.4811ZM23.6 36.8774V37.4623H18.8V36.8774V35.7075H23.6V36.8774ZM20 33.3679H22.4L21.2 32.1981L20 33.3679Z" fill="#374151"/>
  <path d="M5 33.3679H8H15.2L21.2 28.6887L26 33.3679H38L42.8 28.6887L48.8 33.3679H56H59L41.6 24.0094H22.4L13.7 28.6887L5 33.3679Z" fill="#374151"/>
  <path d="M5 33.3679L4.64474 32.7074C4.34208 32.8702 4.18878 33.2178 4.27271 33.5511C4.35665 33.8844 4.65634 34.1179 5 34.1179V33.3679ZM8 51.5H7.25C7.25 51.9142 7.58579 52.25 8 52.25V51.5ZM12.35 38.0472C12.35 37.633 12.0142 37.2972 11.6 37.2972C11.1858 37.2972 10.85 37.633 10.85 38.0472H12.35ZM10.85 42.7264C10.85 43.1406 11.1858 43.4764 11.6 43.4764C12.0142 43.4764 12.35 43.1406 12.35 42.7264H10.85ZM15.95 38.0472C15.95 37.633 15.6142 37.2972 15.2 37.2972C14.7858 37.2972 14.45 37.633 14.45 38.0472H15.95ZM14.45 42.7264C14.45 43.1406 14.7858 43.4764 15.2 43.4764C15.6142 43.4764 15.95 43.1406 15.95 42.7264H14.45ZM26.75 38.0472C26.75 37.633 26.4142 37.2972 26 37.2972C25.5858 37.2972 25.25 37.633 25.25 38.0472H26.75ZM25.25 42.7264C25.25 43.1406 25.5858 43.4764 26 43.4764C26.4142 43.4764 26.75 43.1406 26.75 42.7264H25.25ZM30.35 38.0472C30.35 37.633 30.0142 37.2972 29.6 37.2972C29.1858 37.2972 28.85 37.633 28.85 38.0472H30.35ZM28.85 42.7264C28.85 43.1406 29.1858 43.4764 29.6 43.4764C30.0142 43.4764 30.35 43.1406 30.35 42.7264H28.85ZM32.75 38.0472C32.75 37.633 32.4142 37.2972 32 37.2972C31.5858 37.2972 31.25 37.633 31.25 38.0472H32.75ZM31.25 42.7264C31.25 43.1406 31.5858 43.4764 32 43.4764C32.4142 43.4764 32.75 43.1406 32.75 42.7264H31.25ZM32.75 47.4057C32.75 46.9914 32.4142 46.6557 32 46.6557C31.5858 46.6557 31.25 46.9914 31.25 47.4057H32.75ZM31.25 48.5755C31.25 48.9897 31.5858 49.3255 32 49.3255C32.4142 49.3255 32.75 48.9897 32.75 48.5755H31.25ZM30.35 47.4057C30.35 46.9914 30.0142 46.6557 29.6 46.6557C29.1858 46.6557 28.85 46.9914 28.85 47.4057H30.35ZM28.85 48.5755C28.85 48.9897 29.1858 49.3255 29.6 49.3255C30.0142 49.3255 30.35 48.9897 30.35 48.5755H28.85ZM15.95 47.4057C15.95 46.9914 15.6142 46.6557 15.2 46.6557C14.7858 46.6557 14.45 46.9914 14.45 47.4057H15.95ZM14.45 48.5755C14.45 48.9897 14.7858 49.3255 15.2 49.3255C15.6142 49.3255 15.95 48.9897 15.95 48.5755H14.45ZM12.35 47.4057C12.35 46.9914 12.0142 46.6557 11.6 46.6557C11.1858 46.6557 10.85 46.9914 10.85 47.4057H12.35ZM10.85 48.5755C10.85 48.9897 11.1858 49.3255 11.6 49.3255C12.0142 49.3255 12.35 48.9897 12.35 48.5755H10.85ZM23.15 20.5C23.15 20.0858 22.8142 19.75 22.4 19.75C21.9858 19.75 21.65 20.0858 21.65 20.5H23.15ZM26 33.3679L25.4765 33.905C25.6165 34.0415 25.8044 34.1179 26 34.1179V33.3679ZM21.2 28.6887L21.7235 28.1516C21.455 27.8899 21.0345 27.8667 20.7388 28.0973L21.2 28.6887ZM15.2 33.3679V34.1179C15.3671 34.1179 15.5294 34.0621 15.6612 33.9593L15.2 33.3679ZM18.8 34.5377L18.2765 34.0007C18.1317 34.1419 18.05 34.3355 18.05 34.5377H18.8ZM23.6 34.5377H24.35C24.35 34.3355 24.2683 34.1419 24.1235 34.0007L23.6 34.5377ZM21.2 32.1981L21.7235 31.6611C21.4323 31.3771 20.9677 31.3771 20.6765 31.6611L21.2 32.1981ZM59 33.3679V34.1179C59.3437 34.1179 59.6434 33.8844 59.7273 33.5511C59.8112 33.2178 59.6579 32.8702 59.3553 32.7074L59 33.3679ZM56 51.5V52.25C56.4142 52.25 56.75 51.9142 56.75 51.5H56ZM53.15 38.0472C53.15 37.633 52.8142 37.2972 52.4 37.2972C51.9858 37.2972 51.65 37.633 51.65 38.0472H53.15ZM51.65 42.7264C51.65 43.1406 51.9858 43.4764 52.4 43.4764C52.8142 43.4764 53.15 43.1406 53.15 42.7264H51.65ZM49.55 38.0472C49.55 37.633 49.2142 37.2972 48.8 37.2972C48.3858 37.2972 48.05 37.633 48.05 38.0472H49.55ZM48.05 42.7264C48.05 43.1406 48.3858 43.4764 48.8 43.4764C49.2142 43.4764 49.55 43.1406 49.55 42.7264H48.05ZM38.75 38.0472C38.75 37.633 38.4142 37.2972 38 37.2972C37.5858 37.2972 37.25 37.633 37.25 38.0472H38.75ZM37.25 42.7264C37.25 43.1406 37.5858 43.4764 38 43.4764C38.4142 43.4764 38.75 43.1406 38.75 42.7264H37.25ZM35.15 38.0472C35.15 37.633 34.8142 37.2972 34.4 37.2972C33.9858 37.2972 33.65 37.633 33.65 38.0472H35.15ZM33.65 42.7264C33.65 43.1406 33.9858 43.4764 34.4 43.4764C34.8142 43.4764 35.15 43.1406 35.15 42.7264H33.65ZM35.15 47.4057C35.15 46.9914 34.8142 46.6557 34.4 46.6557C33.9858 46.6557 33.65 46.9914 33.65 47.4057H35.15ZM33.65 48.5755C33.65 48.9897 33.9858 49.3255 34.4 49.3255C34.8142 49.3255 35.15 48.9897 35.15 48.5755H33.65ZM49.55 47.4057C49.55 46.9914 49.2142 46.6557 48.8 46.6557C48.3858 46.6557 48.05 46.9914 48.05 47.4057H49.55ZM48.05 48.5755C48.05 48.9897 48.3858 49.3255 48.8 49.3255C49.2142 49.3255 49.55 48.9897 49.55 48.5755H48.05ZM53.15 47.4057C53.15 46.9914 52.8142 46.6557 52.4 46.6557C51.9858 46.6557 51.65 46.9914 51.65 47.4057H53.15ZM51.65 48.5755C51.65 48.9897 51.9858 49.3255 52.4 49.3255C52.8142 49.3255 53.15 48.9897 53.15 48.5755H51.65ZM42.35 20.5C42.35 20.0858 42.0142 19.75 41.6 19.75C41.1858 19.75 40.85 20.0858 40.85 20.5H42.35ZM38 33.3679V34.1179C38.1956 34.1179 38.3835 34.0415 38.5235 33.905L38 33.3679ZM42.8 28.6887L43.2612 28.0973C42.9655 27.8667 42.545 27.8899 42.2765 28.1516L42.8 28.6887ZM48.8 33.3679L48.3388 33.9593C48.4706 34.0621 48.6329 34.1179 48.8 34.1179V33.3679ZM45.2 34.5377H45.95C45.95 34.3355 45.8683 34.1419 45.7235 34.0007L45.2 34.5377ZM40.4 34.5377L39.8765 34.0007C39.7317 34.1419 39.65 34.3355 39.65 34.5377H40.4ZM42.8 32.1981L43.3235 31.6611C43.0323 31.3771 42.5677 31.3771 42.2765 31.6611L42.8 32.1981ZM5 34.1179H8V32.6179H5V34.1179ZM7.25 33.3679V51.5H8.75V33.3679H7.25ZM8 52.25H18.8V50.75H8V52.25ZM18.8 52.25H23.6V50.75H18.8V52.25ZM22.85 45.6509V51.5H24.35V45.6509H22.85ZM19.55 51.5V45.6509H18.05V51.5H19.55ZM23.6 44.9009H18.8V46.4009H23.6V44.9009ZM18.8 44.0613H23.6V42.5613H18.8V44.0613ZM19.55 43.3113V37.4623H18.05V43.3113H19.55ZM22.85 37.4623V43.3113H24.35V37.4623H22.85ZM10.85 38.0472V42.7264H12.35V38.0472H10.85ZM14.45 38.0472V42.7264H15.95V38.0472H14.45ZM25.25 38.0472V42.7264H26.75V38.0472H25.25ZM28.85 38.0472V42.7264H30.35V38.0472H28.85ZM31.25 38.0472V42.7264H32.75V38.0472H31.25ZM31.25 47.4057V48.5755H32.75V47.4057H31.25ZM28.85 47.4057V48.5755H30.35V47.4057H28.85ZM14.45 47.4057V48.5755H15.95V47.4057H14.45ZM10.85 47.4057V48.5755H12.35V47.4057H10.85ZM23.15 24.0094V20.5H21.65V24.0094H23.15ZM26.5235 32.8309L21.7235 28.1516L20.6765 29.2257L25.4765 33.905L26.5235 32.8309ZM20.7388 28.0973L14.7388 32.7765L15.6612 33.9593L21.6612 29.2801L20.7388 28.0973ZM15.2 32.6179H8V34.1179H15.2V32.6179ZM19.55 45.6509V44.4811H18.05V45.6509H19.55ZM19.55 44.4811V43.3113H18.05V44.4811H19.55ZM22.85 43.3113V44.4811H24.35V43.3113H22.85ZM22.85 44.4811V45.6509H24.35V44.4811H22.85ZM23.6 43.7311H18.8V45.2311H23.6V43.7311ZM18.8 35.2877H23.6V33.7877H18.8V35.2877ZM20.6765 32.7352L21.8765 33.905L22.9235 32.8309L21.7235 31.6611L20.6765 32.7352ZM21.8765 33.905L23.0765 35.0748L24.1235 34.0007L22.9235 32.8309L21.8765 33.905ZM19.3235 35.0748L20.5235 33.905L19.4765 32.8309L18.2765 34.0007L19.3235 35.0748ZM20.5235 33.905L21.7235 32.7352L20.6765 31.6611L19.4765 32.8309L20.5235 33.905ZM22.4 32.6179H20V34.1179H22.4V32.6179ZM19.55 35.7075V34.5377H18.05V35.7075H19.55ZM22.85 34.5377V35.7075H24.35V34.5377H22.85ZM18.8 36.4575H23.6V34.9575H18.8V36.4575ZM22.85 35.7075V36.8774H24.35V35.7075H22.85ZM22.85 36.8774V37.4623H24.35V36.8774H22.85ZM19.55 37.4623V36.8774H18.05V37.4623H19.55ZM19.55 36.8774V35.7075H18.05V36.8774H19.55ZM23.6 36.1274H18.8V37.6274H23.6V36.1274ZM59 32.6179H56V34.1179H59V32.6179ZM55.25 33.3679V51.5H56.75V33.3679H55.25ZM56 50.75H45.2V52.25H56V50.75ZM45.2 50.75H40.4V52.25H45.2V50.75ZM39.65 45.6509V51.5H41.15V45.6509H39.65ZM45.95 51.5V45.6509H44.45V51.5H45.95ZM40.4 46.4009H45.2V44.9009H40.4V46.4009ZM45.2 42.5613H40.4V44.0613H45.2V42.5613ZM45.95 43.3113V37.4623H44.45V43.3113H45.95ZM39.65 37.4623V43.3113H41.15V37.4623H39.65ZM51.65 38.0472V42.7264H53.15V38.0472H51.65ZM48.05 38.0472V42.7264H49.55V38.0472H48.05ZM37.25 38.0472V42.7264H38.75V38.0472H37.25ZM33.65 38.0472V42.7264H35.15V38.0472H33.65ZM33.65 47.4057V48.5755H35.15V47.4057H33.65ZM48.05 47.4057V48.5755H49.55V47.4057H48.05ZM51.65 47.4057V48.5755H53.15V47.4057H51.65ZM59.3553 32.7074L41.9553 23.3489L41.2447 24.67L58.6447 34.0284L59.3553 32.7074ZM42.35 24.0094V20.5H40.85V24.0094H42.35ZM38.5235 33.905L43.3235 29.2257L42.2765 28.1516L37.4765 32.8309L38.5235 33.905ZM42.3388 29.2801L48.3388 33.9593L49.2612 32.7765L43.2612 28.0973L42.3388 29.2801ZM48.8 34.1179H56V32.6179H48.8V34.1179ZM45.95 45.6509V44.4811H44.45V45.6509H45.95ZM45.95 44.4811V43.3113H44.45V44.4811H45.95ZM39.65 43.3113V44.4811H41.15V43.3113H39.65ZM39.65 44.4811V45.6509H41.15V44.4811H39.65ZM40.4 45.2311H45.2V43.7311H40.4V45.2311ZM45.2 33.7877H40.4V35.2877H45.2V33.7877ZM42.2765 31.6611L41.0765 32.8309L42.1235 33.905L43.3235 32.7352L42.2765 31.6611ZM41.0765 32.8309L39.8765 34.0007L40.9235 35.0748L42.1235 33.905L41.0765 32.8309ZM45.7235 34.0007L44.5235 32.8309L43.4765 33.905L44.6765 35.0748L45.7235 34.0007ZM44.5235 32.8309L43.3235 31.6611L42.2765 32.7352L43.4765 33.905L44.5235 32.8309ZM41.6 34.1179H44V32.6179H41.6V34.1179ZM45.95 35.7075V34.5377H44.45V35.7075H45.95ZM39.65 34.5377V35.7075H41.15V34.5377H39.65ZM45.2 34.9575H40.4V36.4575H45.2V34.9575ZM39.65 35.7075V36.8774H41.15V35.7075H39.65ZM39.65 36.8774V37.4623H41.15V36.8774H39.65ZM45.95 37.4623V36.8774H44.45V37.4623H45.95ZM45.95 36.8774V35.7075H44.45V36.8774H45.95ZM40.4 37.6274H45.2V36.1274H40.4V37.6274ZM23.6 52.25H40.4V50.75H23.6V52.25ZM22.4 24.7594H41.6V23.2594H22.4V24.7594ZM38 32.6179H26V34.1179H38V32.6179ZM18.8 38.2123H23.6V36.7123H18.8V38.2123ZM45.2 36.7123H40.4V38.2123H45.2V36.7123ZM5.35526 34.0284L14.0553 29.3492L13.3447 28.0282L4.64474 32.7074L5.35526 34.0284ZM14.0553 29.3492L22.7553 24.67L22.0447 23.3489L13.3447 28.0282L14.0553 29.3492Z" fill="#374151"/>
  <path d="M14.6151 9.88251C7.64796 13.1313 4.69615 21.5469 7.88251 28.3801C11.0689 35.2133 17.4166 36.0177 20.5904 36.4199C25.2934 36.8992 28.2592 39.1425 29.0762 40.8946C28.2592 39.1425 28.4472 35.4286 31.103 31.5178C32.835 28.8279 36.299 23.4482 33.1127 16.6151C29.9263 9.78191 21.5822 6.63369 14.6151 9.88251Z" fill="#FAFAFA" stroke="#374151" stroke-linejoin="round"/>
  <circle cx="20.4976" cy="22.4976" r="9.27947" transform="rotate(-25 20.4976 22.4976)" fill="#65C487"/>
</svg>
